#!OML:ASF F:\VICON\USERDATA\INSTALL\rory3\rory3.ASF
:FULLY-SPECIFIED
:DEGREES
102
root -0.299737 17.0616 13.7548 -159.58 -5.1187 -181.537
lowerback -4.84993 -0.733527 -0.931402
upperback -5.9197 -1.40795 0.0142123
thorax -3.36437 -0.862276 0.521651
lowerneck -15.3196 1.50639 0.417916
upperneck 34.6156 -1.24348 0.788981
head 14.4804 -1.40526 -0.224962
rclavicle 1.94436e-015 -3.8763e-015
rhumerus -148.686 -49.1648 123.712
rradius 14.5912
rwrist 41.6195
rhand -25.6629 12.9604
rfingers 7.12502
rthumb 0.871296 -17.0175
lclavicle 1.94436e-015 -3.8763e-015
lhumerus 30.2391 77.2659 78.8027
lradius 14.8283
lwrist 0.241263
lhand -21.2371 28.7919
lfingers 7.12502
lthumb 5.14541 58.7094
rfemur -54.3722 5.40083 19.7765
rtibia 45.6727
rfoot -3.2846 -21.8466
rtoes 19.3776
lfemur -29.9404 2.04944 -25.7268
ltibia 57.175
lfoot -10.4736 12.2817
ltoes -24.8985
103
root -0.28578 17.0695 13.612 -160.107 -4.86988 -180.874
lowerback -4.46009 -0.509419 -0.620845
upperback -5.85348 -1.09409 0.193929
thorax -3.51876 -0.704087 0.544404
lowerneck -14.9565 1.48864 0.306178
upperneck 34.7113 -1.34967 0.910547
head 14.4436 -1.47324 -0.177032
rclavicle 9.58515e-015 -4.47266e-016
rhumerus -149.267 -50.0347 122.148
rradius 14.6449
rwrist 37.7582
rhand -27.0239 16.3966
rfingers 7.12502
rthumb -0.443177 -13.5827
lclavicle 9.58515e-015 -4.47266e-016
lhumerus 29.2818 76.3167 79.7523
lradius 14.9919
lwrist 0.428717
lhand -22.4206 27.7757
lfingers 7.12502
lthumb 4.00262 57.7179
rfemur -53.3817 5.77952 20.7194
rtibia 45.7977
rfoot -3.85682 -21.7448
rtoes 19.8317
lfemur -31.2299 2.08373 -24.9442
ltibia 57.3733
lfoot -12.3652 12.2903
ltoes -22.9087
104
root -0.279406 17.0714 13.5083 -160.187 -5.84662 -180.466
lowerback -4.08945 -0.664345 -0.0475136
upperback -5.83751 -1.29324 0.329177
thorax -3.7147 -0.815986 0.367419
lowerneck -14.8104 1.42333 0.422328
upperneck 34.6171 -1.45456 0.863431
head 14.3672 -1.50629 -0.230837
rclavicle 3.18055e-015 -8.44835e-016
rhumerus -148.713 -52.4199 118.723
rradius 14.5809
rwrist 33.1732
rhand -28.3522 19.4596
rfingers 7.12502
rthumb -1.72612 -10.5131
lclavicle 3.18055e-015 -8.44835e-016
lhumerus 32.9981 76.157 85.3761
lradius 14.7611
lwrist -1.42336
lhand -23.5877 27.0452
lfingers 7.12502
lthumb 2.87549 57.0056
rfemur -52.9249 4.88712 21.7311
rtibia 46.0081
rfoot -4.50507 -21.8911
rtoes 20.6004
lfemur -33.3279 0.819585 -24.0899
ltibia 57.4728
lfoot -12.4432 13.1617
ltoes -18.8739
105
root -0.26011 17.0639 13.3634 -160.934 -5.64338 -180.006
lowerback -3.52409 -0.376379 -0.020151
upperback -5.50692 -0.853083 0.387505
thorax -3.68877 -0.57263 0.418374
lowerneck -14.8151 1.25052 0.56266
upperneck 34.524 -1.73029 0.881723
head 14.3274 -1.591 -0.28904
rclavicle -1.08089e-014 -3.77691e-015
rhumerus -149.145 -53.4474 116.631
rradius 14.5281
rwrist 31.1125
rhand -29.145 22.3978
rfingers 7.12502
rthumb -2.49174 -7.56742
lclavicle -1.08089e-014 -3.77691e-015
lhumerus 36.9486 75.5476 91.4472
lradius 14.3683
lwrist -3.50941
lhand -24.3397 27.0289
lfingers 7.12502
lthumb 2.14933 56.9978
rfemur -51.7154 5.28816 22.4878
rtibia 46.2472
rfoot -5.22925 -22.2126
rtoes 21.9297
lfemur -34.4621 0.510165 -23.4166
ltibia 57.247
lfoot -14.5613 13.1602
ltoes -19.1151
106
root -0.255636 17.0466 13.2192 -161.855 -5.21074 -179.533
lowerback -2.93916 -0.0798478 0.158911
upperback -5.28394 -0.416953 0.484742
thorax -3.78836 -0.343335 0.421272
lowerneck -14.0181 1.1629 0.41087
upperneck 34.3235 -1.91027 1.03943
head 14.06 -1.69099 -0.221931
rclavicle -5.3237e-015 1.88845e-015
rhumerus -148.295 -55.8223 113.071
rradius 14.4046
rwrist 28.8508
rhand -29.8761 24.868
rfingers 7.12502
rthumb -3.19785 -5.08777
lclavicle -5.3237e-015 1.88845e-015
lhumerus 37.0593 74.7258 93.8583
lradius 14.1714
lwrist -4.47855
lhand -24.6653 27.3499
lfingers 7.12502
lthumb 1.83481 57.3218
rfemur -50.3754 5.44737 23.3726
rtibia 46.6262
rfoot -5.86406 -22.13
rtoes 22.2711
lfemur -35.318 0.12871 -22.8036
ltibia 56.8327
lfoot -16.7249 13.1277
ltoes -17.6378
107
root -0.236394 17.0107 13.1208 -162.211 -5.78225 -179.144
lowerback -2.41191 -0.072138 0.329289
upperback -5.16904 -0.374408 0.709162
thorax -3.96553 -0.31356 0.559342
lowerneck -13.8941 0.997421 0.248434
upperneck 34.333 -2.14051 1.08675
head 14.0395 -1.80822 -0.210118
rclavicle -5.92627e-015 5.56597e-015
rhumerus -143.407 -61.2105 104.697
rradius 14.3802
rwrist 23.3117
rhand -31.046 26.2643
rfingers 7.12502
rthumb -4.32759 -3.67151
lclavicle -5.92627e-015 5.56597e-015
lhumerus 40.8546 74.4365 100.134
lradius 13.8182
lwrist -5.88309
lhand -25.1304 27.4759
lfingers 7.12502
lthumb 1.38564 57.4512
rfemur -49.9309 5.43406 24.0888
rtibia 47.1377
rfoot -6.76899 -22.8718
rtoes 23.2324
lfemur -37.1198 -1.02324 -21.8899
ltibia 56.335
lfoot -18.2125 12.5167
ltoes -14.5498
108
root -0.226765 16.9733 13.0133 -162.745 -6.23495 -178.816
lowerback -1.89489 -0.0387443 0.502098
upperback -4.86649 -0.28198 0.896265
thorax -3.94245 -0.253085 0.654263
lowerneck -14.0838 0.836405 0.0796642
upperneck 34.2772 -2.30263 1.14143
head 14.06 -1.87333 -0.181224
rclavicle 6.37353e-015 -7.95139e-016
rhumerus -139.444 -65.2617 97.6037
rradius 14.345
rwrist 19.5259
rhand -31.9472 27.5367
rfingers 7.12502
rthumb -5.19776 -2.37957
lclavicle 6.37353e-015 -7.95139e-016
lhumerus 45.0462 73.8836 106.86
lradius 13.4214
lwrist -6.63447
lhand -26.1044 27.8458
lfingers 7.12502
lthumb 0.444878 57.8251
rfemur -49.2958 5.31684 24.7625
rtibia 47.7082
rfoot -7.48433 -23.403
rtoes 23.2756
lfemur -38.6403 -2.2136 -21.0834
ltibia 55.6712
lfoot -19.4737 12.1553
ltoes -13.0955
